<?xml version="1.0" encoding="UTF-8"?>
<svg width="87px" height="37px" viewBox="0 0 87 37" version="1.1" xmlns="http://www.w3.org/2000/svg" xmlns:xlink="http://www.w3.org/1999/xlink">
    <title>Logo #2</title>
    <defs>
        <linearGradient x1="21.8750402%" y1="0%" x2="50%" y2="100%" id="linearGradient-1">
            <stop stop-color="#FFAD68" offset="0%"></stop>
            <stop stop-color="#FA7575" offset="100%"></stop>
        </linearGradient>
        <path d="M13.4999678,7.10542736e-15 C20.9558216,7.10542736e-15 26.9999356,6.04411401 26.9999356,13.4999678 C26.9999356,18.9430624 25.1036312,20.463086 14.8874004,35.2735823 C14.2169613,36.2420935 12.7829056,36.2420248 12.1125352,35.2735823 C1.89630438,20.463086 0,18.9430624 0,13.4999678 C0,6.04411401 6.04411401,7.10542736e-15 13.4999678,7.10542736e-15 Z M13.6711376,5.39410579 C10.0147249,5.39410579 7.33552714,7.41368341 7.35181405,10.4430498 C7.34367059,12.9023742 9.07822718,14.3111925 11.8958637,14.9870995 L13.7118549,15.4431331 C15.527846,15.8828799 16.5376348,16.4040612 16.5457783,17.5278584 C16.5376348,18.7493771 15.3812638,19.5800099 13.589703,19.5800099 C11.7574249,19.5800099 10.4381847,18.7330902 10.3241763,17.0636813 L6.91206731,17.0636813 C7.00164535,20.6712333 9.58312158,22.5360852 13.6304203,22.5360852 C17.7021494,22.5360852 20.096326,20.5897987 20.1044695,17.5360019 C20.096326,14.7590827 18.0034573,13.2851167 15.1043862,12.6336401 L13.6059899,12.2753279 C12.1564544,11.9414461 10.9430791,11.4039779 10.9675095,10.2068896 C10.9675095,9.13195308 11.9202941,8.34203764 13.6467072,8.34203764 C15.332403,8.34203764 16.3666222,9.10752271 16.4969175,10.4186195 L19.8764527,10.4186195 C19.8275919,7.44625725 17.3845545,5.39410579 13.6711376,5.39410579 Z" id="path-2"></path>
    </defs>
    <g id="02_Landing-pages" stroke="none" stroke-width="1" fill="none" fill-rule="evenodd">
        <g id="Spotiit/v0.0.2/Landing-Photo" transform="translate(-104.000000, -13.000000)">
            <g id="Nav" transform="translate(80.000000, 0.000000)">
                <g id="Logo-#2" transform="translate(24.000000, 13.200000)">
                    <g id="Group-3" transform="translate(0.000000, 0.700075)">
                        <circle id="Oval" fill="#FFFFFF" cx="13.2" cy="14.6999249" r="10.8"></circle>
                        <g id="Combined-Shape" fill-rule="nonzero">
                            <use fill="#FFFFFF" xlink:href="#path-2"></use>
                            <use fill="url(#linearGradient-1)" xlink:href="#path-2"></use>
                        </g>
                    </g>
                    <g id="Typo" transform="translate(27.800000, 0.000000)" fill="#FFFFFF" font-family="Inter-Medium, Inter" font-size="24" font-weight="400">
                        <text id="potii">
                            <tspan x="0" y="23">potii</tspan>
                        </text>
                        <text id="t" transform="translate(54.300000, 14.500000) scale(-1, 1) translate(-54.300000, -14.500000) ">
                            <tspan x="49.8" y="23">t</tspan>
                        </text>
                    </g>
                </g>
            </g>
        </g>
    </g>
</svg>